<svg width="1920" height="1080" viewBox="0 0 1920 1080" fill="none" xmlns="http://www.w3.org/2000/svg">
<rect width="1920" height="1080" fill="url(#paint0_linear_128_765)"/>
<g clip-path="url(#clip0_128_765)">
<g clip-path="url(#clip1_128_765)">
<path d="M1044.49 448H958.622C950.856 448 944.671 454.086 944.671 461.588V531.508H1044.34C1051.97 531.508 1058.15 525.422 1058.15 517.92V461.588C1058.3 454.086 1052.11 448 1044.49 448Z" fill="#92C83E"/>
<path d="M975.019 496.406C978.752 496.406 981.779 493.428 981.779 489.754C981.779 486.08 978.752 483.102 975.019 483.102C971.285 483.102 968.259 486.08 968.259 489.754C968.259 493.428 971.285 496.406 975.019 496.406Z" fill="white"/>
<path d="M1001.48 496.406C1005.22 496.406 1008.24 493.428 1008.24 489.754C1008.24 486.08 1005.22 483.102 1001.48 483.102C997.75 483.102 994.723 486.08 994.723 489.754C994.723 493.428 997.75 496.406 1001.48 496.406Z" fill="white"/>
<path d="M1027.95 496.406C1031.68 496.406 1034.71 493.428 1034.71 489.754C1034.71 486.08 1031.68 483.102 1027.95 483.102C1024.21 483.102 1021.19 486.08 1021.19 489.754C1021.19 493.428 1024.21 496.406 1027.95 496.406Z" fill="white"/>
<path d="M885.557 547.643C877.934 547.643 871.749 553.729 871.749 561.231V618.271C871.749 625.772 877.934 631.858 885.557 631.858H971.423C979.046 631.858 985.231 625.772 985.231 618.271V547.501H885.557V547.643Z" fill="#FBB03B"/>
<path d="M901.954 596.474C905.687 596.474 908.714 593.495 908.714 589.821C908.714 586.148 905.687 583.169 901.954 583.169C898.22 583.169 895.194 586.148 895.194 589.821C895.194 593.495 898.22 596.474 901.954 596.474Z" fill="white"/>
<path d="M928.418 596.474C932.152 596.474 935.178 593.495 935.178 589.821C935.178 586.148 932.152 583.169 928.418 583.169C924.685 583.169 921.658 586.148 921.658 589.821C921.658 593.495 924.685 596.474 928.418 596.474Z" fill="white"/>
<path d="M954.883 596.474C958.616 596.474 961.643 593.495 961.643 589.821C961.643 586.148 958.616 583.169 954.883 583.169C951.149 583.169 948.123 586.148 948.123 589.821C948.123 593.495 951.149 596.474 954.883 596.474Z" fill="white"/>
<path d="M928.418 503.483V531.649H899.94C884.119 531.649 871.318 519.052 871.318 503.483C871.318 487.914 884.119 475.317 899.94 475.317C915.761 475.317 928.418 488.055 928.418 503.483Z" fill="#ED1E79"/>
<path d="M1001.2 575.809V547.643H1029.82C1045.64 547.643 1058.44 560.24 1058.44 575.809C1058.44 591.378 1045.64 603.975 1029.82 603.975C1014 603.975 1001.2 591.237 1001.2 575.809Z" fill="#3FA9F5"/>
</g>
</g>
<defs>
<linearGradient id="paint0_linear_128_765" x1="944.5" y1="1080" x2="960" y2="-3.15843e-06" gradientUnits="userSpaceOnUse">
<stop stop-color="#313AE6"/>
<stop offset="1" stop-color="#797EF3"/>
</linearGradient>
<clipPath id="clip0_128_765">
<rect width="696" height="184" fill="white" transform="translate(663 448)"/>
</clipPath>
<clipPath id="clip1_128_765">
<rect width="186.978" height="184" fill="white" transform="translate(871.318 448)"/>
</clipPath>
</defs>
</svg>
